<svg version="1.1" id="Layer_1" xmlns="http://www.w3.org/2000/svg" xmlns:xlink="http://www.w3.org/1999/xlink" x="0px" y="0px"
	 width="100%" viewBox="0 0 90 90" enable-background="new 0 0 90 90" xml:space="preserve">
<path fill="#000000" opacity="1.000000" stroke="none" 
	d="
M58.000000,91.000000 
	C38.666668,91.000000 19.833334,91.000000 1.000000,91.000000 
	C1.000000,61.000000 1.000000,31.000000 1.000000,1.000000 
	C31.000000,1.000000 61.000000,1.000000 91.000000,1.000000 
	C91.000000,31.000000 91.000000,61.000000 91.000000,91.000000 
	C80.166664,91.000000 69.333336,91.000000 58.000000,91.000000 
M80.991425,10.083518 
	C80.991425,8.833373 80.991425,7.583229 80.991425,6.305522 
	C79.096870,6.305522 77.575905,6.305522 76.065857,6.305522 
	C76.065857,8.070789 76.065857,9.531655 75.195633,10.998981 
	C73.822815,11.084066 72.450005,11.169151 70.944847,11.262439 
	C70.944847,13.156636 70.944847,14.601175 70.122017,16.003283 
	C68.753548,15.947206 67.385071,15.891129 66.003525,15.021333 
	C65.965103,13.660378 65.926682,12.299423 65.992050,10.073282 
	C65.992050,8.824952 65.992050,7.576621 65.992050,6.306769 
	C64.094337,6.306769 62.574467,6.306769 61.065567,6.306769 
	C61.065567,8.072242 61.065567,9.532075 60.203026,10.998888 
	C58.836742,11.076998 57.470455,11.155107 56.112167,11.232760 
	C56.025787,13.055148 55.958450,14.475730 55.051388,15.975240 
	C51.336315,15.250704 50.643845,17.554060 50.863998,20.723143 
	C49.195267,20.930307 47.779537,21.106066 46.127045,21.311214 
	C46.127045,23.003311 46.127045,24.456226 46.041893,26.829817 
	C46.014088,29.929403 45.986282,33.028988 45.101719,36.022663 
	C43.835804,35.963291 42.569885,35.903919 41.310490,35.844852 
	C41.067177,34.030949 40.879478,32.631630 40.681049,31.152353 
	C35.534882,31.152353 30.743856,31.152353 25.088615,31.014151 
	C23.835508,31.014151 22.582399,31.014151 20.983406,31.014151 
	C20.983406,32.808239 20.983406,34.205570 20.983406,35.717567 
	C19.137608,35.953316 17.620956,36.147026 16.152246,36.334618 
	C16.152246,39.773163 16.152246,42.862827 16.027296,46.813431 
	C17.075001,51.028557 14.053782,51.207355 11.152536,51.291241 
	C11.152536,53.091549 11.152536,54.568295 11.013810,56.969418 
	C11.061280,63.295975 11.108750,69.622528 11.023212,76.808167 
	C11.098726,78.176430 11.174240,79.544701 11.253314,80.977478 
	C13.166265,80.977478 14.608639,80.977478 16.004654,81.842323 
	C16.076517,83.212456 16.148380,84.582588 16.225706,86.056915 
	C18.085316,85.973000 19.517452,85.908379 21.770950,85.978165 
	C23.153355,85.944061 24.535757,85.909950 26.833326,85.963722 
	C29.887995,85.926331 32.942665,85.888939 36.896309,85.961639 
	C39.904411,85.939392 42.912514,85.917137 46.783733,85.968254 
	C48.217464,85.948235 49.651199,85.928207 52.007954,85.987625 
	C58.310337,85.961136 64.612717,85.934647 71.766357,85.968521 
	C73.166969,85.166679 75.696533,84.458298 75.771996,83.546761 
	C76.091774,79.683922 72.827881,81.434753 70.992783,81.007217 
	C70.992783,81.007217 70.973007,81.072502 70.989037,80.156700 
	C71.022522,77.135765 71.056007,74.114822 71.928215,71.026817 
	C73.266754,70.467560 74.841583,70.183151 75.887703,69.283768 
	C77.406075,67.978371 78.542717,66.228966 79.842163,64.668922 
	C80.181839,64.875847 80.521523,65.082771 80.861206,65.289696 
	C80.861206,63.832066 80.861206,62.374432 80.973999,60.020977 
	C80.973999,57.094101 80.973999,54.167229 80.973999,51.021084 
	C78.930916,51.021084 77.455048,51.021084 75.996346,50.167782 
	C75.933853,48.895679 75.871361,47.623581 75.791245,45.992874 
	C74.039085,45.992874 72.590790,45.992874 71.024826,45.181042 
	C71.053162,43.822029 71.081497,42.463017 71.947273,41.014381 
	C73.214027,40.950497 74.480782,40.886612 75.838913,40.818115 
	C75.945381,39.018620 76.031830,37.557568 76.961258,36.006889 
	C78.234207,36.006889 79.507164,36.006889 80.946815,36.006889 
	C80.946815,34.058220 80.946815,32.587517 80.978149,30.244970 
	C80.967674,28.791080 80.957199,27.337191 80.996170,24.993464 
	C80.957291,22.012630 80.918411,19.031799 80.975273,15.206441 
	C80.943359,13.787303 80.911446,12.368166 80.991425,10.083518 
z"/>
<path fill="#870000" opacity="1.000000" stroke="none" 
	d="
M80.861206,60.916798 
	C80.861206,62.374432 80.861206,63.832066 80.861206,65.289696 
	C80.521523,65.082771 80.181839,64.875847 79.842163,64.668922 
	C78.542717,66.228966 77.406075,67.978371 75.887703,69.283768 
	C74.841583,70.183151 73.266754,70.467560 71.077499,71.027962 
	C68.792503,71.042786 67.358223,71.056465 65.476547,71.038261 
	C62.044605,71.027870 59.060066,71.049362 55.662846,71.047081 
	C53.879044,71.060982 52.507919,71.098648 51.075176,71.074890 
	C51.013554,71.013458 50.890388,70.890495 50.931313,70.477875 
	C51.791630,65.674438 48.977585,65.781029 46.013649,65.641129 
	C46.778572,60.982250 44.088329,60.743690 41.026546,60.505581 
	C40.985020,58.711220 40.958591,57.327923 40.955048,55.527458 
	C40.942497,53.716366 40.907055,52.322430 40.918549,50.519516 
	C40.974716,48.738094 40.983952,47.365650 41.410133,45.995865 
	C43.215782,45.980896 44.604481,45.963268 45.994797,46.374146 
	C47.018414,48.587639 48.040409,50.372627 49.062408,52.157612 
	C49.584179,51.925896 50.105949,51.694180 50.627720,51.462463 
	C50.896404,52.843990 51.165089,54.225513 51.507881,55.988106 
	C53.131084,55.988106 54.571358,55.988106 56.007908,56.422031 
	C56.480186,61.583282 57.541393,61.978909 65.739578,60.336605 
	C65.850471,58.957138 65.967583,57.500240 66.491089,56.025532 
	C68.268646,56.008427 69.639816,56.009132 71.007538,56.441040 
	C70.547630,60.000118 71.775764,61.388153 75.030792,61.032673 
	C76.955528,60.822472 78.916519,60.944283 80.861206,60.916798 
z"/>
<path fill="#C77F3C" opacity="1.000000" stroke="none" 
	d="
M40.993191,45.993210 
	C40.983952,47.365650 40.974716,48.738094 40.463196,50.544945 
	C35.517685,50.979351 31.074455,50.979351 26.631222,50.979351 
	C26.835773,51.391087 27.040325,51.802822 27.244877,52.214558 
	C25.482704,53.898853 23.720530,55.583145 21.144535,58.045296 
	C21.134333,58.183071 21.025738,59.649452 20.497957,61.072815 
	C15.863849,62.051903 16.054970,58.552483 15.395972,56.045044 
	C13.801353,56.045044 12.476945,56.045044 11.152536,56.045044 
	C11.152536,54.568295 11.152536,53.091549 11.152536,51.291241 
	C14.053782,51.207355 17.075001,51.028557 16.505421,46.399223 
	C18.733168,44.919865 20.482786,43.854706 22.232405,42.789551 
	C21.997093,42.267101 21.761784,41.744652 21.526472,41.222202 
	C22.984186,41.119839 24.441902,41.017475 26.325314,40.944878 
	C28.167078,40.979961 29.583143,40.985271 31.416988,40.994057 
	C33.228477,41.003654 34.622185,41.009777 36.007946,41.007950 
	C36.000000,41.000000 35.984108,40.984108 35.989922,41.405014 
	C35.297462,46.057583 37.955044,46.266781 41.002686,46.002686 
	C41.000065,46.000065 40.993191,45.993210 40.993191,45.993210 
z"/>
<path fill="#FFDDB6" opacity="1.000000" stroke="none" 
	d="
M11.083174,56.507233 
	C12.476945,56.045044 13.801353,56.045044 15.395972,56.045044 
	C16.054970,58.552483 15.863849,62.051903 20.531422,61.483040 
	C21.042313,63.306259 21.100554,64.676239 21.091181,66.456055 
	C21.039408,68.249802 21.055246,69.633713 21.035801,70.931305 
	C21.000517,70.844986 20.816368,70.874474 20.413937,70.918411 
	C15.905937,70.212799 15.867148,73.026093 15.398090,75.866249 
	C13.731064,75.941360 12.443642,75.945229 11.156219,75.949097 
	C11.108750,69.622528 11.061280,63.295975 11.083174,56.507233 
z"/>
<path fill="#7F3300" opacity="1.000000" stroke="none" 
	d="
M35.997334,85.851540 
	C32.942665,85.888939 29.887995,85.926331 26.408756,85.510376 
	C25.943312,83.678116 25.902435,82.299217 25.922596,80.516754 
	C25.963629,78.747726 25.943624,77.382256 26.384979,76.011398 
	C29.632416,76.006020 32.418491,76.006020 35.421032,76.006020 
	C35.807819,74.251892 36.114418,72.861427 36.469162,71.252617 
	C38.090183,71.157593 39.544682,71.072334 40.999443,71.444427 
	C40.398674,75.707230 43.467804,81.226524 35.997334,81.655006 
	C35.997334,83.258209 35.997334,84.554871 35.997334,85.851540 
z"/>
<path fill="#870000" opacity="1.000000" stroke="none" 
	d="
M36.446823,85.906586 
	C35.997334,84.554871 35.997334,83.258209 35.997334,81.655006 
	C43.467804,81.226524 40.398674,75.707230 40.999420,71.451675 
	C40.999138,71.001564 40.986908,70.999367 41.412090,70.999519 
	C43.254860,70.974640 44.672451,70.949608 46.490303,70.951920 
	C48.223843,70.949661 49.557114,70.920074 50.890388,70.890495 
	C50.890388,70.890495 51.013554,71.013458 51.024857,71.515610 
	C51.035210,75.043335 51.034252,78.068901 51.026886,81.057480 
	C51.020473,81.020493 51.094444,81.033363 50.669674,81.023605 
	C46.089367,80.236336 45.719433,82.812622 45.920616,85.894882 
	C42.912514,85.917137 39.904411,85.939392 36.446823,85.906586 
z"/>
<path fill="#C77F3C" opacity="1.000000" stroke="none" 
	d="
M45.993183,45.945641 
	C44.604481,45.963268 43.215782,45.980896 41.410133,45.995865 
	C40.993191,45.993210 41.000065,46.000065 41.000732,45.582718 
	C41.711021,40.913284 39.011898,40.751507 35.984108,40.984108 
	C35.984108,40.984108 36.000000,41.000000 36.002075,40.586979 
	C36.694698,35.950901 34.061420,35.722408 30.591358,36.006268 
	C28.831450,35.981220 27.479393,35.959320 26.080799,35.540604 
	C26.007118,33.813309 25.979975,32.482830 25.952829,31.152353 
	C30.743856,31.152353 35.534882,31.152353 40.681049,31.152353 
	C40.879478,32.631630 41.067177,34.030949 41.310490,35.844852 
	C42.569885,35.903919 43.835804,35.963291 45.542213,36.036964 
	C45.982712,36.051262 45.909069,36.019630 45.946602,36.430573 
	C46.039799,38.213627 46.095459,39.585743 46.095337,41.374237 
	C46.006763,43.194279 45.973980,44.597946 45.968948,46.001480 
	C45.996700,46.001350 45.993183,45.945644 45.993183,45.945641 
z"/>
<path fill="#ADADA2" opacity="1.000000" stroke="none" 
	d="
M76.118271,36.096516 
	C76.031830,37.557568 75.945381,39.018620 75.838913,40.818115 
	C74.480782,40.886612 73.214027,40.950497 71.104675,41.019012 
	C68.851723,41.029400 67.441368,41.035156 65.608871,41.024002 
	C63.780827,41.018372 62.374905,41.029652 60.556396,41.026905 
	C58.767620,40.997971 57.391426,40.983063 56.000984,40.985092 
	C55.986732,41.002029 55.982910,41.046288 55.989517,40.625015 
	C56.049423,38.802658 56.102718,37.401577 56.571552,36.000282 
	C58.244080,35.914158 59.501068,35.828247 60.987328,35.726662 
	C60.987328,33.937542 60.987328,32.475105 60.993610,31.006393 
	C60.999893,31.000118 61.012424,30.987570 61.434769,30.992798 
	C63.262047,31.047480 64.666977,31.096931 66.045631,31.572474 
	C65.599747,34.838345 66.414497,36.397678 69.693245,36.047829 
	C71.809105,35.822063 73.974869,36.064117 76.118271,36.096516 
z"/>
<path fill="#ADADA2" opacity="1.000000" stroke="none" 
	d="
M55.891113,15.896311 
	C55.958450,14.475730 56.025787,13.055148 56.112167,11.232760 
	C57.470455,11.155107 58.836742,11.076998 60.601265,10.992848 
	C60.999504,10.986809 61.011814,10.921696 61.006828,11.343201 
	C61.006821,13.164393 61.011799,14.564080 61.010696,16.421402 
	C61.005699,19.934139 61.006794,22.989246 61.004532,26.456295 
	C61.004929,28.241348 61.008678,29.614460 61.012424,30.987570 
	C61.012424,30.987570 60.999893,31.000118 60.582207,31.001156 
	C58.796097,31.018795 57.427673,31.035397 56.068893,31.010857 
	C56.078537,30.969717 56.006569,30.925411 56.004578,30.464285 
	C55.965427,25.300877 55.928272,20.598593 55.891113,15.896311 
z"/>
<path fill="#FFDDAD" opacity="1.000000" stroke="none" 
	d="
M25.520721,31.083252 
	C25.979975,32.482830 26.007118,33.813309 26.034081,35.956093 
	C25.989138,38.150631 25.944378,39.532871 25.899616,40.915108 
	C24.441902,41.017475 22.984186,41.119839 21.526472,41.222202 
	C21.761784,41.744652 21.997093,42.267101 22.232405,42.789551 
	C20.482786,43.854706 18.733168,44.919865 16.567898,45.968758 
	C16.152246,42.862827 16.152246,39.773163 16.152246,36.334618 
	C17.620956,36.147026 19.137608,35.953316 20.983406,35.717567 
	C20.983406,34.205570 20.983406,32.808239 20.983406,31.014151 
	C22.582399,31.014151 23.835508,31.014151 25.520721,31.083252 
z"/>
<path fill="#FFFFFF" opacity="1.000000" stroke="none" 
	d="
M76.539764,36.051704 
	C73.974869,36.064117 71.809105,35.822063 69.693245,36.047829 
	C66.414497,36.397678 65.599747,34.838345 66.470993,31.505131 
	C68.275146,30.928049 69.627655,30.844400 71.034477,30.757395 
	C71.034477,28.845032 71.034477,27.405310 71.016891,25.983145 
	C70.999306,26.000702 70.964203,26.035889 71.386635,26.019756 
	C73.217979,26.014380 74.626884,26.025135 76.018242,26.018288 
	C76.000687,26.000687 75.965553,25.965509 75.981392,26.399586 
	C76.070686,28.208336 76.144135,29.583008 76.226089,31.116812 
	C78.071098,31.116812 79.508957,31.116812 80.946815,31.116812 
	C80.946815,32.587517 80.946815,34.058220 80.946815,36.006889 
	C79.507164,36.006889 78.234207,36.006889 76.539764,36.051704 
z"/>
<path fill="#ADADA2" opacity="1.000000" stroke="none" 
	d="
M70.915100,85.908150 
	C64.612717,85.934647 58.310337,85.961136 51.511620,85.543907 
	C51.041672,83.744583 51.068058,82.388969 51.094444,81.033363 
	C51.094444,81.033363 51.020473,81.020493 51.436020,81.017975 
	C53.220913,81.006760 54.590263,80.998070 56.417374,80.993233 
	C59.930225,80.994522 62.985310,80.991959 66.451401,80.993805 
	C68.232605,81.022980 69.602806,81.047745 70.973007,81.072510 
	C70.973007,81.072502 70.992783,81.007217 70.990402,81.424309 
	C70.963707,83.196983 70.939407,84.552567 70.915100,85.908150 
z"/>
<path fill="#4C2E31" opacity="1.000000" stroke="none" 
	d="
M56.156013,36.000496 
	C56.102718,37.401577 56.049423,38.802658 55.573902,40.607285 
	C53.766323,40.986706 52.380966,40.962582 50.995872,40.520859 
	C51.737030,35.706745 48.863838,35.812374 45.909069,36.019630 
	C45.909069,36.019630 45.982712,36.051262 45.970592,36.089920 
	C45.986282,33.028988 46.014088,29.929403 46.496300,26.401052 
	C48.740082,27.085878 50.529465,28.199471 52.318844,29.313061 
	C52.097675,29.850512 51.876507,30.387960 51.655338,30.925411 
	C53.105747,30.925411 54.556160,30.925411 56.006569,30.925411 
	C56.006569,30.925411 56.078537,30.969717 56.045162,31.423149 
	C56.059864,33.251221 56.107941,34.625858 56.156013,36.000496 
z"/>
<path fill="#875E59" opacity="1.000000" stroke="none" 
	d="
M56.004578,30.464285 
	C54.556160,30.925411 53.105747,30.925411 51.655338,30.925411 
	C51.876507,30.387960 52.097675,29.850512 52.318844,29.313061 
	C50.529465,28.199471 48.740082,27.085878 46.538872,25.940716 
	C46.127045,24.456226 46.127045,23.003311 46.127045,21.311214 
	C47.779537,21.106066 49.195267,20.930307 50.863998,20.723143 
	C50.643845,17.554060 51.336315,15.250704 55.471252,15.935776 
	C55.928272,20.598593 55.965427,25.300877 56.004578,30.464285 
z"/>
<path fill="#FFFFFF" opacity="1.000000" stroke="none" 
	d="
M61.007889,26.044352 
	C61.006794,22.989246 61.005699,19.934139 61.427284,16.437899 
	C63.238842,15.942860 64.627724,15.888956 66.016602,15.835052 
	C67.385071,15.891129 68.753548,15.947206 70.541641,16.006798 
	C70.961273,16.010311 70.938599,16.043491 70.966202,16.495100 
	C70.983940,19.976435 70.974075,23.006163 70.964203,26.035889 
	C70.964203,26.035889 70.999306,26.000702 70.560936,25.998959 
	C67.084343,26.012926 64.046112,26.028639 61.007889,26.044352 
z"/>
<path fill="#E20B00" opacity="1.000000" stroke="none" 
	d="
M80.917603,60.468887 
	C78.916519,60.944283 76.955528,60.822472 75.030792,61.032673 
	C71.775764,61.388153 70.547630,60.000118 71.002785,56.437592 
	C71.001480,56.002934 71.012558,56.014221 71.432144,56.009064 
	C76.136482,56.735611 76.236710,53.996609 76.004013,50.996002 
	C75.996094,51.003952 75.979179,51.021084 75.979179,51.021084 
	C77.455048,51.021084 78.930916,51.021084 80.973999,51.021084 
	C80.973999,54.167229 80.973999,57.094101 80.917603,60.468887 
z"/>
<path fill="#875E59" opacity="1.000000" stroke="none" 
	d="
M66.031006,41.040916 
	C67.441368,41.035156 68.851723,41.029400 70.685959,41.063820 
	C71.081497,42.463017 71.053162,43.822029 71.029266,45.995861 
	C71.008987,48.186672 70.984268,49.562668 70.553024,50.964451 
	C68.781738,51.005997 67.416969,51.021751 66.029869,50.621994 
	C65.964447,48.831066 65.921364,47.455643 65.926163,45.660576 
	C65.993042,43.840923 66.012024,42.440922 66.031006,41.040916 
z"/>
<path fill="#FFFFFF" opacity="1.000000" stroke="none" 
	d="
M80.879532,16.050966 
	C80.918411,19.031799 80.957291,22.012630 80.559372,25.492023 
	C78.736893,25.982225 77.351227,25.973867 75.965553,25.965511 
	C75.965553,25.965509 76.000687,26.000687 76.002159,25.562321 
	C76.025841,22.085981 76.048058,19.048008 76.037277,16.001654 
	C76.004288,15.993276 75.990005,16.059835 76.399139,16.032717 
	C78.165359,16.020721 79.522446,16.035845 80.879532,16.050966 
z"/>
<path fill="#490006" opacity="1.000000" stroke="none" 
	d="
M70.981018,80.614609 
	C69.602806,81.047745 68.232605,81.022980 66.432938,80.542328 
	C65.976967,77.081001 65.950462,74.075577 65.923950,71.070145 
	C67.358223,71.056465 68.792503,71.042786 70.658134,71.061493 
	C71.056007,74.114822 71.022522,77.135765 70.981018,80.614609 
z"/>
<path fill="#490006" opacity="1.000000" stroke="none" 
	d="
M71.340729,85.938339 
	C70.939407,84.552567 70.963707,83.196983 70.957756,81.434196 
	C72.827881,81.434753 76.091774,79.683922 75.771996,83.546761 
	C75.696533,84.458298 73.166969,85.166679 71.340729,85.938339 
z"/>
<path fill="#490006" opacity="1.000000" stroke="none" 
	d="
M50.669674,81.023605 
	C51.068058,82.388969 51.041672,83.744583 51.050110,85.504189 
	C49.651199,85.928207 48.217464,85.948235 46.352173,85.931564 
	C45.719433,82.812622 46.089367,80.236336 50.669674,81.023605 
z"/>
<path fill="#D19571" opacity="1.000000" stroke="none" 
	d="
M25.861559,80.920311 
	C25.902435,82.299217 25.943312,83.678116 25.951176,85.466431 
	C24.535757,85.909950 23.153355,85.944061 21.376957,85.508987 
	C20.993431,83.698074 21.003901,82.356339 21.421169,81.008797 
	C23.172501,80.975426 24.517029,80.947868 25.861559,80.920311 
z"/>
<path fill="#FFDDB6" opacity="1.000000" stroke="none" 
	d="
M21.014370,81.014610 
	C21.003901,82.356339 20.993431,83.698074 20.966276,85.441772 
	C19.517452,85.908379 18.085316,85.973000 16.225706,86.056915 
	C16.148380,84.582588 16.076517,83.212456 15.990335,81.419266 
	C15.976017,80.996216 15.981116,81.073921 16.397234,81.040314 
	C18.202230,80.997803 19.591106,80.988907 20.988548,80.988571 
	C20.997110,80.997139 21.014372,81.014610 21.014370,81.014610 
z"/>
<path fill="#D19571" opacity="1.000000" stroke="none" 
	d="
M11.089716,76.378632 
	C12.443642,75.945229 13.731064,75.941360 15.484526,75.947021 
	C15.950566,75.956551 16.120575,76.120201 16.067686,76.527504 
	C16.003571,78.314514 15.992344,79.694214 15.981117,81.073921 
	C15.981116,81.073921 15.976017,80.996216 16.013515,80.986847 
	C14.608639,80.977478 13.166265,80.977478 11.253314,80.977478 
	C11.174240,79.544701 11.098726,78.176430 11.089716,76.378632 
z"/>
<path fill="#FFFFFF" opacity="1.000000" stroke="none" 
	d="
M61.032536,10.989358 
	C61.065567,9.532075 61.065567,8.072242 61.065567,6.306769 
	C62.574467,6.306769 64.094337,6.306769 65.992050,6.306769 
	C65.992050,7.576621 65.992050,8.824952 65.538528,10.533623 
	C63.727272,10.969873 62.369541,10.945785 61.011814,10.921696 
	C61.011814,10.921696 60.999504,10.986809 61.032536,10.989358 
z"/>
<path fill="#FFFFFF" opacity="1.000000" stroke="none" 
	d="
M76.065857,10.992522 
	C76.065857,9.531655 76.065857,8.070789 76.065857,6.305522 
	C77.575905,6.305522 79.096870,6.305522 80.991425,6.305522 
	C80.991425,7.583229 80.991425,8.833373 80.533516,10.539141 
	C78.721001,10.970406 77.366386,10.946049 76.005692,10.954370 
	C75.999611,10.987048 76.065857,10.992522 76.065857,10.992522 
z"/>
<path fill="#870000" opacity="1.000000" stroke="none" 
	d="
M61.006828,11.343201 
	C62.369541,10.945785 63.727272,10.969873 65.486633,10.966215 
	C65.926682,12.299423 65.965103,13.660378 66.010063,15.428192 
	C64.627724,15.888956 63.238842,15.942860 61.433372,15.980266 
	C61.011799,14.564080 61.006821,13.164393 61.006828,11.343201 
z"/>
<path fill="#ADADA2" opacity="1.000000" stroke="none" 
	d="
M70.953064,16.028013 
	C70.944847,14.601175 70.944847,13.156636 70.944847,11.262439 
	C72.450005,11.169151 73.822815,11.084066 75.630745,10.995751 
	C76.065857,10.992522 75.999611,10.987048 76.000801,11.382669 
	C75.997993,13.205472 75.993996,14.632653 75.990005,16.059835 
	C75.990005,16.059835 76.004288,15.993276 75.609589,15.997509 
	C73.789452,16.015657 72.364029,16.029573 70.938599,16.043491 
	C70.938599,16.043491 70.961273,16.010311 70.953064,16.028013 
z"/>
<path fill="#870000" opacity="1.000000" stroke="none" 
	d="
M76.399139,16.032717 
	C75.993996,14.632653 75.997993,13.205472 76.006882,11.349991 
	C77.366386,10.946049 78.721001,10.970406 80.477570,10.971895 
	C80.911446,12.368166 80.943359,13.787303 80.927399,15.628704 
	C79.522446,16.035845 78.165359,16.020721 76.399139,16.032717 
z"/>
<path fill="#041519" opacity="1.000000" stroke="none" 
	d="
M75.981392,26.399586 
	C77.351227,25.973867 78.736893,25.982225 80.534645,25.936943 
	C80.957199,27.337191 80.967674,28.791080 80.962479,30.680891 
	C79.508957,31.116812 78.071098,31.116812 76.226089,31.116812 
	C76.144135,29.583008 76.070686,28.208336 75.981392,26.399586 
z"/>
<path fill="#E20B00" opacity="1.000000" stroke="none" 
	d="
M70.959541,50.938660 
	C70.984268,49.562668 71.008987,48.186672 71.088104,46.401779 
	C72.590790,45.992874 74.039085,45.992874 75.791245,45.992874 
	C75.871361,47.623581 75.933853,48.895679 75.987762,50.594433 
	C75.979179,51.021084 75.996094,51.003952 75.590439,50.999947 
	C73.810326,51.011990 72.435867,51.028034 71.039108,51.014671 
	C71.016808,50.985264 70.959541,50.938660 70.959541,50.938660 
z"/>
<path fill="#A85328" opacity="1.000000" stroke="none" 
	d="
M40.999161,70.994324 
	C39.544682,71.072334 38.090183,71.157593 36.469162,71.252617 
	C36.114418,72.861427 35.807819,74.251892 35.421032,76.006020 
	C32.418491,76.006020 29.632416,76.006020 25.979237,76.004173 
	C23.751650,76.027618 22.391167,76.052910 21.020344,75.644196 
	C20.945457,73.764954 20.880913,72.319710 20.816368,70.874474 
	C20.816368,70.874474 21.000517,70.844986 21.450712,70.925575 
	C26.168066,71.703049 26.209879,68.937256 26.009562,65.990440 
	C26.000000,66.000000 25.980877,66.019112 26.402422,66.012177 
	C31.080736,66.717102 31.252701,64.018295 31.009562,60.990440 
	C31.000000,61.000000 30.980877,61.019115 31.437376,61.012230 
	C34.943130,60.975777 37.992386,60.946209 41.041641,60.916641 
	C44.088329,60.743690 46.778572,60.982250 46.004379,65.616737 
	C46.001926,66.015953 46.051174,66.011169 45.627571,66.007614 
	C40.958950,65.272194 40.727921,67.928940 40.986908,70.999367 
	C40.986908,70.999367 40.999138,71.001564 40.999161,70.994324 
z"/>
<path fill="#A85328" opacity="1.000000" stroke="none" 
	d="
M21.158792,66.046219 
	C21.100554,64.676239 21.042313,63.306259 20.950607,61.526054 
	C21.025738,59.649452 21.134333,58.183071 21.144535,58.045296 
	C23.720530,55.583145 25.482704,53.898853 27.244877,52.214558 
	C27.040325,51.802822 26.835773,51.391087 26.631222,50.979351 
	C31.074455,50.979351 35.517685,50.979351 40.416267,50.953926 
	C40.907055,52.322430 40.942497,53.716366 40.506630,55.547707 
	C37.169518,55.985115 34.303715,55.985115 31.236359,55.985115 
	C31.126955,58.140797 31.053917,59.579956 30.980877,61.019115 
	C30.980877,61.019115 31.000000,61.000000 30.587866,60.997452 
	C25.918684,60.282776 25.747572,62.982113 25.980877,66.019112 
	C25.980877,66.019112 26.000000,66.000000 25.603781,65.997322 
	C23.857971,66.011841 22.508383,66.029030 21.158792,66.046219 
z"/>
<path fill="#E20B00" opacity="1.000000" stroke="none" 
	d="
M50.995613,40.938461 
	C52.380966,40.962582 53.766323,40.986706 55.567291,41.028557 
	C55.982910,41.046288 55.986732,41.002029 55.995583,41.441784 
	C56.043427,44.921318 56.082420,47.961102 56.071327,51.416679 
	C56.005455,53.230350 55.989670,54.628227 55.983318,56.016663 
	C55.992748,56.007221 56.011631,55.988106 56.011631,55.988106 
	C54.571358,55.988106 53.131084,55.988106 51.507881,55.988106 
	C51.165089,54.225513 50.896404,52.843990 50.627720,51.462463 
	C50.105949,51.694180 49.584179,51.925896 49.062408,52.157612 
	C48.040409,50.372627 47.018414,48.587639 45.994797,46.374146 
	C45.993183,45.945644 45.996700,46.001350 46.393089,46.000481 
	C50.987411,46.743092 51.299751,44.159763 51.013165,41.032753 
	C51.011749,41.000656 50.995613,40.938461 50.995613,40.938461 
z"/>
<path fill="#FFFFFF" opacity="1.000000" stroke="none" 
	d="
M65.476547,71.038254 
	C65.950462,74.075577 65.976967,77.081001 66.021935,80.537918 
	C62.985310,80.991959 59.930225,80.994522 56.435841,80.541748 
	C56.022873,77.081223 56.049198,74.076035 56.075527,71.070854 
	C59.060066,71.049362 62.044605,71.027870 65.476547,71.038254 
z"/>
<path fill="#490006" opacity="1.000000" stroke="none" 
	d="
M55.662846,71.047081 
	C56.049198,74.076035 56.022873,77.081223 55.978081,80.537888 
	C54.590263,80.998070 53.220913,81.006760 51.442429,81.054962 
	C51.034252,78.068901 51.035210,75.043335 51.086479,71.577042 
	C52.507919,71.098648 53.879044,71.060982 55.662846,71.047081 
z"/>
<path fill="#7F3300" opacity="1.000000" stroke="none" 
	d="
M31.437376,61.012230 
	C31.053917,59.579956 31.126955,58.140797 31.236359,55.985115 
	C34.303715,55.985115 37.169518,55.985115 40.483742,55.964867 
	C40.958591,57.327923 40.985020,58.711220 41.026546,60.505581 
	C37.992386,60.946209 34.943130,60.975777 31.437376,61.012230 
z"/>
<path fill="#E20B00" opacity="1.000000" stroke="none" 
	d="
M66.084702,56.043339 
	C65.967583,57.500240 65.850471,58.957138 65.739578,60.336605 
	C57.541393,61.978909 56.480186,61.583282 56.007908,56.422031 
	C56.011631,55.988106 55.992748,56.007221 56.405594,56.005798 
	C58.219135,55.959198 59.619831,55.914024 61.426727,55.924156 
	C63.189125,55.965488 64.545319,55.951523 65.949921,55.959465 
	C65.998337,55.981380 66.084702,56.043339 66.084702,56.043339 
z"/>
<path fill="#EF6723" opacity="1.000000" stroke="none" 
	d="
M50.931313,70.477875 
	C49.557114,70.920074 48.223843,70.949661 46.457340,70.544838 
	C46.033134,68.744011 46.042152,67.377586 46.051174,66.011169 
	C46.051174,66.011169 46.001926,66.015953 46.011192,66.040344 
	C48.977585,65.781029 51.791630,65.674438 50.931313,70.477875 
z"/>
<path fill="#490006" opacity="1.000000" stroke="none" 
	d="
M66.052208,51.037506 
	C67.416969,51.021751 68.781738,51.005997 70.553024,50.964451 
	C70.959541,50.938660 71.016808,50.985264 71.016846,51.426979 
	C71.015450,53.250534 71.014000,54.632378 71.012558,56.014221 
	C71.012558,56.014221 71.001480,56.002934 71.006241,56.006386 
	C69.639816,56.009132 68.268646,56.008427 66.491089,56.025532 
	C66.084702,56.043339 65.998337,55.981380 65.991951,55.547691 
	C65.972595,53.729645 65.959625,52.345291 65.972061,50.981438 
	C65.997467,51.001934 66.052208,51.037506 66.052208,51.037506 
z"/>
<path fill="#D19571" opacity="1.000000" stroke="none" 
	d="
M26.325315,40.944878 
	C25.944378,39.532871 25.989138,38.150631 26.080616,36.352905 
	C27.479393,35.959320 28.831450,35.981220 30.591656,36.421219 
	C30.999607,38.223072 30.999409,39.606831 30.999208,40.990585 
	C29.583143,40.985271 28.167078,40.979961 26.325315,40.944878 
z"/>
<path fill="#A85328" opacity="1.000000" stroke="none" 
	d="
M31.416988,40.994057 
	C30.999409,39.606831 30.999607,38.223072 30.999508,36.424366 
	C34.061420,35.722408 36.694698,35.950901 36.010021,40.594929 
	C34.622185,41.009777 33.228477,41.003654 31.416988,40.994057 
z"/>
<path fill="#A85328" opacity="1.000000" stroke="none" 
	d="
M35.989922,41.405014 
	C39.011898,40.751507 41.711021,40.913284 41.003349,45.585339 
	C37.955044,46.266781 35.297462,46.057583 35.989922,41.405014 
z"/>
<path fill="#7F3300" opacity="1.000000" stroke="none" 
	d="
M21.091181,66.456055 
	C22.508383,66.029030 23.857971,66.011841 25.613342,65.987762 
	C26.209879,68.937256 26.168066,71.703049 21.485996,71.011887 
	C21.055246,69.633713 21.039408,68.249802 21.091181,66.456055 
z"/>
<path fill="#D19571" opacity="1.000000" stroke="none" 
	d="
M20.413937,70.918411 
	C20.880913,72.319710 20.945457,73.764954 21.002474,75.620041 
	C20.994946,76.029884 21.050091,76.007820 20.635454,76.004250 
	C18.854071,76.040520 17.487322,76.080360 16.120575,76.120201 
	C16.120575,76.120201 15.950566,75.956551 15.864130,75.875778 
	C15.867148,73.026093 15.905937,70.212799 20.413937,70.918411 
z"/>
<path fill="#FFDDB6" opacity="1.000000" stroke="none" 
	d="
M21.012814,76.054039 
	C22.391167,76.052910 23.751650,76.027618 25.517876,76.009552 
	C25.943624,77.382256 25.963629,78.747726 25.922596,80.516754 
	C24.517029,80.947868 23.172501,80.975426 21.421171,81.008797 
	C21.014372,81.014610 20.997110,80.997139 20.997704,80.574287 
	C21.015560,78.770233 21.032825,77.389023 21.050091,76.007820 
	C21.050091,76.007820 20.994946,76.029884 21.012814,76.054039 
z"/>
<path fill="#7F3300" opacity="1.000000" stroke="none" 
	d="
M45.627571,66.007614 
	C46.042152,67.377586 46.033134,68.744011 46.057076,70.517502 
	C44.672451,70.949608 43.254860,70.974640 41.412090,70.999519 
	C40.727921,67.928940 40.958950,65.272194 45.627571,66.007614 
z"/>
<path fill="#000000" opacity="1.000000" stroke="none" 
	d="
M45.946602,36.430573 
	C48.863838,35.812374 51.737030,35.706745 50.995872,40.520859 
	C50.995613,40.938461 51.011749,41.000656 50.608299,41.009113 
	C48.853611,40.997665 47.502365,40.977760 46.151123,40.957855 
	C46.095459,39.585743 46.039799,38.213627 45.946602,36.430573 
z"/>
<path fill="#870000" opacity="1.000000" stroke="none" 
	d="
M46.095337,41.374237 
	C47.502365,40.977760 48.853611,40.997665 50.609718,41.041206 
	C51.299751,44.159763 50.987411,46.743092 46.365334,46.000610 
	C45.973980,44.597946 46.006763,43.194279 46.095337,41.374237 
z"/>
<path fill="#875E59" opacity="1.000000" stroke="none" 
	d="
M56.121418,51.000881 
	C56.082420,47.961102 56.043427,44.921318 56.009834,41.424847 
	C57.391426,40.983063 58.767620,40.997971 60.569370,41.444214 
	C61.037212,43.277046 61.079498,44.678543 61.068130,46.488312 
	C60.992252,48.276924 60.970028,49.657265 60.542931,51.023067 
	C58.799179,51.005981 57.460297,51.003433 56.121418,51.000881 
z"/>
<path fill="#041519" opacity="1.000000" stroke="none" 
	d="
M61.004532,26.456295 
	C64.046112,26.028639 67.084343,26.012926 70.578522,25.981400 
	C71.034477,27.405310 71.034477,28.845032 71.034477,30.757395 
	C69.627655,30.844400 68.275146,30.928049 66.497269,31.079041 
	C64.666977,31.096931 63.262047,31.047480 61.434769,30.992798 
	C61.008678,29.614460 61.004929,28.241348 61.004532,26.456295 
z"/>
<path fill="#FF0000" opacity="1.000000" stroke="none" 
	d="
M56.571556,36.000282 
	C56.107941,34.625858 56.059864,33.251221 56.035519,31.464291 
	C57.427673,31.035397 58.796097,31.018795 60.575924,31.007431 
	C60.987328,32.475105 60.987328,33.937542 60.987328,35.726662 
	C59.501068,35.828247 58.244080,35.914158 56.571556,36.000282 
z"/>
<path fill="#EDAF7D" opacity="1.000000" stroke="none" 
	d="
M61.121780,46.080040 
	C61.079498,44.678543 61.037212,43.277046 60.981956,41.458237 
	C62.374905,41.029652 63.780827,41.018372 65.608871,41.024002 
	C66.012024,42.440922 65.993042,43.840923 65.532150,45.626816 
	C63.767422,46.035149 62.444599,46.057594 61.121780,46.080040 
z"/>
<path fill="#FF0000" opacity="1.000000" stroke="none" 
	d="
M70.966202,16.495098 
	C72.364029,16.029573 73.789452,16.015657 75.642578,16.005886 
	C76.048058,19.048008 76.025841,22.085981 76.019714,25.579924 
	C74.626884,26.025135 73.217979,26.014380 71.386635,26.019756 
	C70.974075,23.006163 70.983940,19.976435 70.966202,16.495098 
z"/>
<path fill="#870000" opacity="1.000000" stroke="none" 
	d="
M71.432137,56.009064 
	C71.014000,54.632378 71.015450,53.250534 71.039154,51.456387 
	C72.435867,51.028034 73.810326,51.011990 75.598358,50.991997 
	C76.236710,53.996609 76.136482,56.735611 71.432137,56.009064 
z"/>
<path fill="#FFFFF7" opacity="1.000000" stroke="none" 
	d="
M61.068130,46.488312 
	C62.444599,46.057594 63.767422,46.035149 65.484253,46.046463 
	C65.921364,47.455643 65.964447,48.831066 66.029869,50.621994 
	C66.052208,51.037506 65.997467,51.001934 65.564507,50.996281 
	C63.772144,50.980732 62.412739,50.970837 61.027489,50.980850 
	C61.001644,51.000751 60.947803,51.037605 60.947803,51.037605 
	C60.970028,49.657265 60.992252,48.276924 61.068130,46.488312 
z"/>
<path fill="#000000" opacity="1.000000" stroke="none" 
	d="
M20.635456,76.004250 
	C21.032825,77.389023 21.015560,78.770233 20.989140,80.565720 
	C19.591106,80.988907 18.202230,80.997803 16.397236,81.040314 
	C15.992344,79.694214 16.003571,78.314514 16.067686,76.527504 
	C17.487322,76.080360 18.854071,76.040520 20.635456,76.004250 
z"/>
<path fill="#7F3300" opacity="1.000000" stroke="none" 
	d="
M26.402422,66.012177 
	C25.747572,62.982113 25.918684,60.282776 30.597427,60.987892 
	C31.252701,64.018295 31.080736,66.717102 26.402422,66.012177 
z"/>
<path fill="#490006" opacity="1.000000" stroke="none" 
	d="
M56.071327,51.416679 
	C57.460297,51.003433 58.799179,51.005981 60.542931,51.023067 
	C60.947803,51.037605 61.001644,51.000751 61.005219,51.392353 
	C61.012707,53.145588 61.016617,54.507221 61.020523,55.868855 
	C59.619831,55.914024 58.219135,55.959198 56.396164,56.015236 
	C55.989670,54.628227 56.005455,53.230350 56.071327,51.416679 
z"/>
<path fill="#ADADA2" opacity="1.000000" stroke="none" 
	d="
M61.426727,55.924156 
	C61.016617,54.507221 61.012707,53.145588 61.031067,51.372452 
	C62.412739,50.970837 63.772144,50.980732 65.539108,50.975784 
	C65.959625,52.345291 65.972595,53.729645 65.943542,55.525776 
	C64.545319,55.951523 63.189125,55.965488 61.426727,55.924156 
z"/>
</svg>